<svg width="70" height="78" viewBox="0 0 70 78" fill="none" xmlns="http://www.w3.org/2000/svg">
<path d="M35.75 2.70096L35 2.26795L34.25 2.70096L3.93911 20.201L3.18911 20.634V21.5V56.5V57.366L3.93911 57.799L34.25 75.299L35 75.732L35.75 75.299L66.0609 57.799L66.8109 57.366V56.5V21.5V20.634L66.0609 20.201L35.75 2.70096Z" fill="#A7DAF5" stroke="#1D9DDD" stroke-width="3"/>
<path d="M50.8464 22.7898L49.2992 40.2059L49.305 40.3018L49.2992 40.5168L48.1981 52.6913L48.0793 53.7751L34.9797 57.407L34.9681 57.4187L21.8946 53.7634L21.008 43.6956H27.4172L27.8721 48.8152L34.9797 50.7474L42.1105 48.7891L42.8638 40.4529H27.9591L27.8316 39.0437L27.5389 35.743L27.3883 33.9706H43.4346L44.0199 27.4853H19.5708L19.4433 26.0761L19.1536 22.7724L19 21H51L50.8464 22.7898Z" fill="#1D9DDD"/>
</svg>
