<svg width="202" height="201" viewBox="0 0 202 201" fill="none" xmlns="http://www.w3.org/2000/svg">
<path d="M158.16 69.76L128.23 100.21C128.177 100.26 128.135 100.321 128.107 100.388C128.078 100.455 128.063 100.527 128.063 100.6C128.063 100.673 128.078 100.745 128.107 100.812C128.135 100.879 128.177 100.94 128.23 100.99L149.23 123.32C149.732 123.826 150.074 124.469 150.212 125.169C150.35 125.869 150.279 126.594 150.006 127.253C149.734 127.912 149.273 128.476 148.681 128.874C148.089 129.272 147.393 129.486 146.68 129.49C145.72 129.488 144.8 129.107 144.12 128.43L123.23 106.18C123.123 106.075 122.98 106.016 122.83 106.016C122.68 106.016 122.537 106.075 122.43 106.18L117.34 111.32C115.256 113.451 112.767 115.144 110.019 116.3C107.272 117.456 104.321 118.051 101.34 118.05C98.3027 118.036 95.2987 117.417 92.5035 116.229C89.7082 115.04 87.1778 113.307 85.06 111.13L80.17 106.13C80.0633 106.025 79.9196 105.966 79.77 105.966C79.6203 105.966 79.4766 106.025 79.37 106.13L58.53 128.33C58.1947 128.666 57.7964 128.932 57.358 129.114C56.9196 129.296 56.4496 129.39 55.975 129.39C55.5004 129.39 55.0304 129.296 54.592 129.114C54.1536 128.932 53.7553 128.666 53.42 128.33C53.0829 127.995 52.8153 127.597 52.6327 127.159C52.4501 126.72 52.3561 126.25 52.3561 125.775C52.3561 125.3 52.4501 124.83 52.6327 124.391C52.8153 123.953 53.0829 123.555 53.42 123.22L74.34 100.94C74.4329 100.831 74.484 100.693 74.484 100.55C74.484 100.407 74.4329 100.269 74.34 100.16L44.41 69.71C44.3331 69.6327 44.2349 69.58 44.1279 69.5586C44.0209 69.5371 43.91 69.548 43.8092 69.5898C43.7084 69.6316 43.6224 69.7024 43.562 69.7933C43.5016 69.8841 43.4695 69.991 43.47 70.1001V131.03C43.4779 133.385 44.417 135.642 46.0825 137.307C47.748 138.973 50.0046 139.912 52.36 139.92H150.23C152.585 139.912 154.842 138.973 156.507 137.307C158.173 135.642 159.112 133.385 159.12 131.03V70.15C159.125 70.0366 159.095 69.9245 159.033 69.8289C158.972 69.7334 158.883 69.6592 158.778 69.6165C158.672 69.5738 158.557 69.5647 158.446 69.5904C158.335 69.6161 158.236 69.6753 158.16 69.76V69.76Z" fill="#A7DAF5"/>
<path d="M101.31 110.82C103.339 110.84 105.351 110.452 107.227 109.679C109.103 108.906 110.804 107.764 112.23 106.32L155.82 61.95C154.273 60.6682 152.329 59.9615 150.32 59.95H52.38C50.3698 59.9566 48.4249 60.6638 46.88 61.95L90.48 106.32C91.8931 107.755 93.5796 108.893 95.4396 109.666C97.2997 110.439 99.2958 110.831 101.31 110.82V110.82Z" fill="#A7DAF5"/>
</svg>
