<svg width="70" height="78" viewBox="0 0 70 78" fill="none" xmlns="http://www.w3.org/2000/svg">
<path d="M35.75 2.70096L35 2.26795L34.25 2.70096L3.93911 20.201L3.18911 20.634V21.5V56.5V57.366L3.93911 57.799L34.25 75.299L35 75.732L35.75 75.299L66.0609 57.799L66.8109 57.366V56.5V21.5V20.634L66.0609 20.201L35.75 2.70096Z" fill="#A7DAF5" stroke="#1D9DDD" stroke-width="3"/>
<path d="M50.8888 22.7028L50.5551 26.0102L50.4369 27.3766H26.0076L26.5777 33.9775H49.8738L49.6444 35.6802L48.1705 52.6518L48.0524 53.787L35.0521 57.4027V57.4238H34.9687L34.9479 57.4308V57.4238H34.9409L21.8295 53.78L21.0369 43.6475H27.3702L27.8221 48.7768L34.9409 50.7178H34.9687L42.0597 48.7838L42.8523 40.4732H34.9479V40.4662H20.7032L19.1182 22.7028L19 21H51L50.8888 22.7028Z" fill="#1D9DDD"/>
</svg>
