<svg width="30" height="30" viewBox="0 0 30 30" fill="none" xmlns="http://www.w3.org/2000/svg">
<rect width="30" height="30" rx="4" fill="#EDF7FD"/>
<path fill-rule="evenodd" clip-rule="evenodd" d="M3.95831 5.71976C3.95831 5.25261 4.14389 4.80458 4.47422 4.47425C4.80455 4.14392 5.25257 3.95835 5.71973 3.95835H23.2783C23.5098 3.95797 23.7391 4.00326 23.9531 4.09162C24.1671 4.17998 24.3616 4.30968 24.5253 4.47329C24.6891 4.63691 24.819 4.83122 24.9076 5.04511C24.9962 5.25899 25.0418 5.48825 25.0416 5.71976V23.2783C25.0419 23.5099 24.9965 23.7392 24.908 23.9532C24.8196 24.1672 24.6898 24.3617 24.5261 24.5254C24.3624 24.6892 24.168 24.8191 23.9541 24.9077C23.7401 24.9963 23.5108 25.0418 23.2793 25.0417H5.71973C5.48834 25.0417 5.25921 24.9961 5.04544 24.9075C4.83168 24.8189 4.63746 24.6891 4.47388 24.5254C4.31031 24.3618 4.18058 24.1675 4.09212 23.9537C4.00365 23.7398 3.95819 23.5107 3.95831 23.2793V5.71976ZM12.3035 11.9968H15.1584V13.4305C15.5704 12.6063 16.6246 11.8646 18.2087 11.8646C21.2457 11.8646 21.9654 13.5062 21.9654 16.5183V22.0977H18.892V17.2044C18.892 15.489 18.4799 14.5211 17.4334 14.5211C15.9816 14.5211 15.3778 15.5647 15.3778 17.2044V22.0977H12.3035V11.9968ZM7.03265 21.9664H10.107V11.8646H7.03265V21.9654V21.9664ZM10.5469 8.56985C10.5527 8.83307 10.5058 9.09481 10.4091 9.33969C10.3124 9.58457 10.1677 9.80766 9.98358 9.99588C9.79946 10.1841 9.57961 10.3336 9.33692 10.4357C9.09422 10.5378 8.83358 10.5904 8.57029 10.5904C8.307 10.5904 8.04636 10.5378 7.80367 10.4357C7.56098 10.3336 7.34112 10.1841 7.15701 9.99588C6.97289 9.80766 6.82823 9.58457 6.7315 9.33969C6.63477 9.09481 6.58793 8.83307 6.59373 8.56985C6.60511 8.05316 6.81835 7.56148 7.18779 7.20009C7.55722 6.83869 8.05349 6.63633 8.57029 6.63633C9.0871 6.63633 9.58336 6.83869 9.9528 7.20009C10.3222 7.56148 10.5355 8.05316 10.5469 8.56985V8.56985Z" fill="#071926"/>
</svg>
