<svg width="30" height="30" viewBox="0 0 30 30" fill="none" xmlns="http://www.w3.org/2000/svg">
<rect width="30" height="30" rx="4" fill="#EDF7FD"/>
<path fill-rule="evenodd" clip-rule="evenodd" d="M14.5 3C8.14625 3 3 8.14625 3 14.5C3 19.5887 6.29187 23.8869 10.8631 25.4106C11.4381 25.5112 11.6537 25.1663 11.6537 24.8644C11.6537 24.5913 11.6394 23.6856 11.6394 22.7225C8.75 23.2544 8.0025 22.0181 7.7725 21.3712C7.64312 21.0406 7.0825 20.02 6.59375 19.7469C6.19125 19.5313 5.61625 18.9994 6.57937 18.985C7.485 18.9706 8.13187 19.8187 8.3475 20.1637C9.3825 21.9031 11.0356 21.4144 11.6969 21.1125C11.7975 20.365 12.0994 19.8619 12.43 19.5744C9.87125 19.2869 7.1975 18.295 7.1975 13.8962C7.1975 12.6456 7.64313 11.6106 8.37625 10.8056C8.26125 10.5181 7.85875 9.33937 8.49125 7.75813C8.49125 7.75813 9.45437 7.45625 11.6537 8.93688C12.5737 8.67813 13.5512 8.54875 14.5287 8.54875C15.5062 8.54875 16.4837 8.67813 17.4037 8.93688C19.6031 7.44188 20.5662 7.75813 20.5662 7.75813C21.1987 9.33937 20.7963 10.5181 20.6813 10.8056C21.4144 11.6106 21.86 12.6312 21.86 13.8962C21.86 18.3094 19.1719 19.2869 16.6131 19.5744C17.03 19.9337 17.3894 20.6237 17.3894 21.7019C17.3894 23.24 17.375 24.4763 17.375 24.8644C17.375 25.1663 17.5906 25.5256 18.1656 25.4106C20.4485 24.6399 22.4323 23.1726 23.8377 21.2154C25.2431 19.2582 25.9993 16.9095 26 14.5C26 8.14625 20.8537 3 14.5 3Z" fill="#071926"/>
</svg>
