<svg width="30" height="30" viewBox="0 0 30 30" fill="none" xmlns="http://www.w3.org/2000/svg">
<rect width="30" height="30" rx="4" fill="#EDF7FD"/>
<g clip-path="url(#clip0_601_12)">
<path d="M25.5209 9.23588C25.3906 8.77131 25.137 8.35071 24.7868 8.01879C24.4267 7.67667 23.9854 7.43194 23.5045 7.30771C21.7048 6.83333 14.4943 6.83334 14.4943 6.83334C11.4883 6.79913 8.48308 6.94956 5.49554 7.28375C5.01464 7.41716 4.57417 7.66736 4.21329 8.01208C3.85871 8.35325 3.60188 8.77396 3.46771 9.23492C3.14541 10.9712 2.98882 12.7341 3.00004 14.5C2.98854 16.2643 3.14475 18.0267 3.46771 19.7651C3.599 20.2241 3.85488 20.6429 4.21042 20.9812C4.56596 21.3195 5.00871 21.5639 5.49554 21.6933C7.31925 22.1667 14.4943 22.1667 14.4943 22.1667C17.5041 22.2009 20.5132 22.0505 23.5045 21.7163C23.9854 21.592 24.4267 21.3473 24.7868 21.0052C25.1368 20.6733 25.3902 20.2527 25.5199 19.7881C25.8506 18.0525 26.0114 16.2888 26 14.522C26.0249 12.7478 25.8643 10.9758 25.5209 9.23492V9.23588ZM12.202 17.7813V11.2196L18.2011 14.501L12.202 17.7813Z" fill="#071926"/>
</g>
<defs>
<clipPath id="clip0_601_12">
<rect width="23" height="23" fill="white" transform="translate(3 3)"/>
</clipPath>
</defs>
</svg>
