<svg width="25" height="25" viewBox="0 0 25 25" fill="none" xmlns="http://www.w3.org/2000/svg">
<path fill-rule="evenodd" clip-rule="evenodd" d="M1.04169 2.95624C1.04169 2.44846 1.2434 1.96148 1.60246 1.60243C1.96151 1.24337 2.44849 1.04166 2.95627 1.04166H22.0417C22.2933 1.04125 22.5426 1.09047 22.7752 1.18652C23.0078 1.28257 23.2191 1.42354 23.3972 1.60138C23.5752 1.77922 23.7164 1.99043 23.8127 2.22292C23.909 2.45541 23.9585 2.7046 23.9584 2.95624V22.0417C23.9586 22.2933 23.9093 22.5426 23.8131 22.7752C23.717 23.0078 23.5759 23.2192 23.398 23.3972C23.22 23.5752 23.0088 23.7164 22.7762 23.8127C22.5437 23.909 22.2944 23.9585 22.0427 23.9583H2.95627C2.70476 23.9583 2.45571 23.9088 2.22335 23.8125C1.99099 23.7162 1.77989 23.5751 1.60209 23.3972C1.42429 23.2193 1.28328 23.0081 1.18713 22.7757C1.09097 22.5433 1.04155 22.2942 1.04169 22.0427V2.95624ZM10.1125 9.77916H13.2156V11.3375C13.6636 10.4417 14.8094 9.63541 16.5313 9.63541C19.8323 9.63541 20.6146 11.4198 20.6146 14.6937V20.7583H17.274V15.4396C17.274 13.575 16.8261 12.5229 15.6886 12.5229C14.1104 12.5229 13.4542 13.6573 13.4542 15.4396V20.7583H10.1125V9.77916ZM4.38335 20.6156H7.72502V9.63541H4.38335V20.6146V20.6156ZM8.20315 6.05416C8.20945 6.34028 8.15853 6.62477 8.0534 6.89094C7.94826 7.15712 7.79101 7.39961 7.59089 7.60419C7.39076 7.80877 7.15179 7.97132 6.888 8.08229C6.6242 8.19326 6.3409 8.25043 6.05471 8.25043C5.76852 8.25043 5.48522 8.19326 5.22142 8.08229C4.95763 7.97132 4.71865 7.80877 4.51853 7.60419C4.31841 7.39961 4.16116 7.15712 4.05602 6.89094C3.95088 6.62477 3.89997 6.34028 3.90627 6.05416C3.91864 5.49255 4.15042 4.95811 4.55198 4.56529C4.95355 4.17247 5.49296 3.95251 6.05471 3.95251C6.61645 3.95251 7.15587 4.17247 7.55743 4.56529C7.959 4.95811 8.19078 5.49255 8.20315 6.05416V6.05416Z" fill="#EDF7FD"/>
</svg>
