<svg width="201" height="201" viewBox="0 0 201 201" fill="none" xmlns="http://www.w3.org/2000/svg">
<path d="M142.96 125.74C139.48 122.26 131.11 117.01 126.96 115.05C122.17 112.75 120.41 112.79 117.02 115.24C114.2 117.24 112.37 119.17 109.13 118.46C105.89 117.75 99.47 112.91 93.26 106.72C87.05 100.53 82.23 94.15 81.54 90.86C80.85 87.57 82.75 85.78 84.77 82.96C87.21 79.57 87.28 77.81 84.96 73.02C82.96 68.87 77.77 60.52 74.26 57.02C70.75 53.52 69.99 54.29 68.07 55.02C66.094 55.8483 64.1964 56.8524 62.4 58.02C58.92 60.35 56.97 62.29 55.6 65.21C54.23 68.13 52.68 73.55 60.65 87.74C66.5294 98.5954 73.976 108.525 82.75 117.21V117.21C91.4643 126.004 101.428 133.464 112.32 139.35C126.5 147.35 131.93 145.76 134.85 144.4C137.77 143.04 139.71 141.11 142.03 137.6C143.2 135.805 144.204 133.907 145.03 131.93C145.69 130.01 146.47 129.23 142.96 125.74Z" fill="#A7DAF5"/>
</svg>
