<svg width="70" height="78" viewBox="0 0 70 78" fill="none" xmlns="http://www.w3.org/2000/svg">
<path d="M35.75 2.70096L35 2.26795L34.25 2.70096L3.93911 20.201L3.18911 20.634V21.5V56.5V57.366L3.93911 57.799L34.25 75.299L35 75.732L35.75 75.299L66.0609 57.799L66.8109 57.366V56.5V21.5V20.634L66.0609 20.201L35.75 2.70096Z" fill="#A7DAF5" stroke="#003459" stroke-width="3"/>
<path d="M60 39.2688C60 35.9563 55.8521 32.8167 49.4917 30.8708C50.9604 24.3896 50.3083 19.2313 47.4333 17.5792C46.7367 17.189 45.9483 16.9926 45.15 17.0104V19.2813C45.6187 19.2813 45.9958 19.375 46.3125 19.5479C47.6979 20.3438 48.3 23.3688 47.8312 27.2625C47.7187 28.2208 47.5354 29.2292 47.3104 30.2583C45.1805 29.7451 43.0188 29.3741 40.8396 29.1479C39.5414 27.3569 38.125 25.6545 36.6 24.0521C39.9229 20.9646 43.0417 19.2729 45.1625 19.2729V17C42.3583 17 38.6896 18.9979 34.9792 22.4625C31.2708 19.0208 27.6 17.0417 24.7979 17.0417V19.3125C26.9083 19.3125 30.0375 20.9958 33.3604 24.0625C31.9333 25.5625 30.5063 27.2625 29.15 29.1479C26.9663 29.3716 24.8007 29.7461 22.6687 30.2688C22.4333 29.25 22.2604 28.2625 22.1375 27.3146C21.6583 23.4188 22.25 20.3938 23.6271 19.5896C23.9312 19.4063 24.3292 19.3229 24.7979 19.3229V17.0521C23.9437 17.0521 23.1667 17.2354 22.4958 17.6208C19.6312 19.2729 18.9896 24.4188 20.4667 30.8813C14.1271 32.8396 10 35.9667 10 39.2688C10 42.5813 14.1479 45.7208 20.5083 47.6646C19.0396 54.1479 19.6917 59.3063 22.5667 60.9563C23.2292 61.3438 24.0042 61.5271 24.8583 61.5271C27.6625 61.5271 31.3313 59.5292 35.0417 56.0646C38.75 59.5083 42.4187 61.4854 45.2229 61.4854C46.0273 61.5024 46.8217 61.3054 47.525 60.9146C50.3896 59.2646 51.0312 54.1188 49.5542 47.6563C55.8729 45.7104 60 42.5708 60 39.2688ZM46.7292 32.4708C46.3333 33.833 45.8745 35.1761 45.3542 36.4958C44.5024 34.8391 43.5672 33.2266 42.5521 31.6646C44 31.8792 45.3958 32.1438 46.7312 32.4708H46.7292ZM42.0625 43.325C41.2687 44.7 40.4521 46.0063 39.6062 47.2188C36.5484 47.4883 33.473 47.4918 30.4146 47.2292C28.6603 44.7233 27.1261 42.0703 25.8292 39.3C27.1241 36.5231 28.6518 33.8609 30.3958 31.3417C33.4529 31.0716 36.5276 31.0674 39.5854 31.3292C40.4312 32.5417 41.2583 33.8375 42.0521 35.2042C42.8271 36.5375 43.5312 37.8917 44.1729 39.2583C43.5241 40.6416 42.8201 41.9982 42.0625 43.325V43.325ZM45.3542 42C45.9042 43.3646 46.375 44.7313 46.7604 46.0563C45.4271 46.3833 44.0187 46.6583 42.5625 46.8708C43.5734 45.2946 44.5051 43.669 45.3542 42V42ZM35.0208 52.875C34.0729 51.8958 33.125 50.8063 32.1875 49.6125C33.1042 49.6542 34.0417 49.6854 34.9896 49.6854C35.9479 49.6854 36.8958 49.6646 37.8229 49.6125C36.9062 50.8063 35.9583 51.8958 35.0208 52.875ZM27.4375 46.8708C26.0328 46.6673 24.6383 46.399 23.2583 46.0667C23.6354 44.7521 24.1042 43.3958 24.6333 42.0417C25.0521 42.8542 25.4917 43.6708 25.9708 44.4875C26.45 45.3021 26.9375 46.0979 27.4375 46.8708ZM34.9687 25.6625C35.9167 26.6417 36.8646 27.7313 37.8021 28.925C36.8854 28.8833 35.9479 28.8521 35 28.8521C34.0417 28.8521 33.0937 28.8729 32.1667 28.925C33.0833 27.7313 34.0312 26.6417 34.9687 25.6625ZM27.4271 31.6667C26.4164 33.2394 25.4847 34.8616 24.6354 36.5271C24.1004 35.1989 23.6311 33.8452 23.2292 32.4708C24.5625 32.1542 25.9708 31.8792 27.4271 31.6667ZM18.2042 44.425C14.5958 42.8875 12.2625 40.8688 12.2625 39.2688C12.2625 37.6688 14.5958 35.6396 18.2042 34.1125C19.0792 33.7354 20.0375 33.3979 21.0271 33.0833C21.6083 35.0792 22.3729 37.1583 23.3187 39.2896C22.4258 41.2941 21.6705 43.3573 21.0583 45.4646C20.0905 45.1649 19.138 44.818 18.2042 44.425V44.425ZM23.6875 58.9875C22.3021 58.1958 21.7 55.1667 22.1687 51.275C22.2812 50.3167 22.4646 49.3063 22.6896 48.2771C24.6854 48.7667 26.8667 49.1438 29.1604 49.3896C30.4587 51.1806 31.875 52.883 33.4 54.4854C30.0771 57.5729 26.9583 59.2646 24.8375 59.2646C24.4374 59.269 24.0424 59.1745 23.6875 58.9896V58.9875ZM47.8625 51.2229C48.3417 55.1167 47.75 58.1438 46.3729 58.9479C46.0687 59.1313 45.6708 59.2125 45.2021 59.2125C43.0917 59.2125 39.9625 57.5313 36.6396 54.4625C38.0667 52.9667 39.4937 51.2646 40.85 49.3792C43.0337 49.1555 45.1993 48.781 47.3312 48.2583C47.5667 49.2875 47.7479 50.275 47.8625 51.2229V51.2229ZM51.7854 44.425C50.9104 44.8021 49.9521 45.1396 48.9625 45.4542C48.3395 43.3361 47.5739 41.2626 46.6708 39.2479C47.6083 37.1292 48.3604 35.0604 48.9312 33.0729C49.9417 33.3875 50.8979 33.7354 51.7958 34.1125C55.4042 35.65 57.7375 37.6688 57.7375 39.2688C57.7271 40.8688 55.3937 42.8979 51.7854 44.425V44.425Z" fill="#003459"/>
<path d="M34.9896 43.9271C36.225 43.9271 37.4099 43.4363 38.2835 42.5627C39.1571 41.6891 39.6479 40.5042 39.6479 39.2688C39.6479 38.0333 39.1571 36.8484 38.2835 35.9748C37.4099 35.1012 36.225 34.6104 34.9896 34.6104C33.7541 34.6104 32.5692 35.1012 31.6956 35.9748C30.822 36.8484 30.3312 38.0333 30.3312 39.2688C30.3312 40.5042 30.822 41.6891 31.6956 42.5627C32.5692 43.4363 33.7541 43.9271 34.9896 43.9271V43.9271Z" fill="#003459"/>
</svg>
